<svg width="32" height="32" viewBox="0 0 32 32" fill="none" xmlns="http://www.w3.org/2000/svg">
<path fill-rule="evenodd" clip-rule="evenodd" d="M3.33301 8.00001C3.33301 6.15906 4.82539 4.66667 6.66634 4.66667H25.333C27.174 4.66667 28.6663 6.15906 28.6663 8.00001V26.6667C28.6663 28.5076 27.174 30 25.333 30H6.66634C4.82539 30 3.33301 28.5076 3.33301 26.6667V8.00001ZM6.66634 6.00001C5.56177 6.00001 4.66634 6.89544 4.66634 8.00001V26.6667C4.66634 27.7712 5.56177 28.6667 6.66634 28.6667H25.333C26.4376 28.6667 27.333 27.7712 27.333 26.6667V8.00001C27.333 6.89544 26.4376 6.00001 25.333 6.00001H6.66634Z" fill="#606060"/>
<path fill-rule="evenodd" clip-rule="evenodd" d="M21.3337 2C21.7018 2 22.0003 2.29848 22.0003 2.66667V8C22.0003 8.36819 21.7018 8.66667 21.3337 8.66667C20.9655 8.66667 20.667 8.36819 20.667 8V2.66667C20.667 2.29848 20.9655 2 21.3337 2Z" fill="#606060"/>
<path fill-rule="evenodd" clip-rule="evenodd" d="M10.6667 2C11.0349 2 11.3333 2.29848 11.3333 2.66667V8C11.3333 8.36819 11.0349 8.66667 10.6667 8.66667C10.2985 8.66667 10 8.36819 10 8V2.66667C10 2.29848 10.2985 2 10.6667 2Z" fill="#606060"/>
<path fill-rule="evenodd" clip-rule="evenodd" d="M3.33301 13.3333C3.33301 12.9651 3.63148 12.6667 3.99967 12.6667H27.9997C28.3679 12.6667 28.6663 12.9651 28.6663 13.3333C28.6663 13.7015 28.3679 14 27.9997 14H3.99967C3.63148 14 3.33301 13.7015 3.33301 13.3333Z" fill="#606060"/>
</svg>
